# xmcd CD database file
#
# Track frame offsets:
#	150
#	13397
#	26183
#	42280
#	55922
#	69797
#	80847
#	104795
#	117699
#	130521
#	138603
#	152005
#	165969
#	179604
#	193583
#	210372
#
# Disc length: 2990 seconds
#
# Revision: 0
# Processed by: cddbd v1.5.2PL0 Copyright (c) Steve Scherf et al.
# Submitted via: CDex 1.70beta2
#
DISCID=e60bac10
DTITLE=Henry Yaita  - ジミー時田メモリアル ミシシッピーデルタブルース
DYEAR=2003
DGENRE=Country
TTITLE0=Lovesick Blues
TTITLE1=A Mansion On The Hill
TTITLE2=Hey,Good Lookin’
TTITLE3=Blueberry Hill
TTITLE4=Right Or Wrong
TTITLE5=Kaw-Liga
TTITLE6=Kentucky Walts
TTITLE7=Someday
TTITLE8=Half As Much
TTITLE9=Yakety Sax
TTITLE10=Ridin’ Down The Canyon
TTITLE11=Peach Pickin’ Time Down In Georgia
TTITLE12=Move It On Over
TTITLE13=Cotton Fields
TTITLE14=Mississippi Delta Blues
TTITLE15=Take Me Home,Country Roads
EXTD=YEAR: 2003
EXTT0=
EXTT1=
EXTT2=
EXTT3=
EXTT4=
EXTT5=
EXTT6=
EXTT7=
EXTT8=
EXTT9=
EXTT10=
EXTT11=
EXTT12=
EXTT13=
EXTT14=
EXTT15=
PLAYORDER=
